<svg width="40" height="40" viewBox="0 0 40 40" fill="none" xmlns="http://www.w3.org/2000/svg">
<path fill-rule="evenodd" clip-rule="evenodd" d="M8.50004 0.833334H31.5C35.7342 0.833334 39.1667 4.26582 39.1667 8.5V31.5C39.1667 35.7342 35.7342 39.1667 31.5 39.1667H8.50004C4.26586 39.1667 0.833374 35.7342 0.833374 31.5V8.5C0.833374 4.26582 4.26586 0.833334 8.50004 0.833334ZM34.7663 34.7662C35.6326 33.9 36.1192 32.7251 36.1192 31.5V8.5C36.1192 7.27492 35.6326 6.10002 34.7663 5.23376C33.9 4.3675 32.7251 3.88083 31.5 3.88083H8.50004C5.94895 3.88083 3.88088 5.94891 3.88088 8.5V31.5C3.88088 32.7251 4.36754 33.9 5.2338 34.7662C6.10006 35.6325 7.27496 36.1192 8.50004 36.1192H31.5C32.7251 36.1192 33.9 35.6325 34.7663 34.7662Z" fill="#9747FF"/>
<path d="M27.6667 18.5625H21.4375V12.3333C21.4375 11.5394 20.794 10.8958 20 10.8958C19.2061 10.8958 18.5625 11.5394 18.5625 12.3333V18.5625H12.3334C11.5395 18.5625 10.8959 19.2061 10.8959 20C10.8959 20.7939 11.5395 21.4375 12.3334 21.4375H18.5625V27.6667C18.5625 28.4606 19.2061 29.1042 20 29.1042C20.794 29.1042 21.4375 28.4606 21.4375 27.6667V21.4375H27.6667C28.4606 21.4375 29.1042 20.7939 29.1042 20C29.1042 19.2061 28.4606 18.5625 27.6667 18.5625Z" fill="#9747FF"/>
</svg>
