<svg width="36" height="37" viewBox="0 0 36 37" fill="none" xmlns="http://www.w3.org/2000/svg">
<path fill-rule="evenodd" clip-rule="evenodd" d="M20.7984 1.0076L32.2984 7.3901C34.126 8.40827 35.2565 10.3388 35.25 12.4309V24.8126C35.2565 26.9047 34.126 28.8353 32.2984 29.8534L20.7984 36.2359C19.0587 37.2051 16.9414 37.2051 15.2017 36.2359L3.70169 29.8534C1.87402 28.8353 0.743591 26.9047 0.750027 24.8126V12.4309C0.743591 10.3388 1.87402 8.40827 3.70169 7.3901L15.2017 1.0076C16.9414 0.0384411 19.0587 0.0384411 20.7984 1.0076ZM30.8225 27.3426C31.7306 26.8229 32.293 25.8588 32.2984 24.8126V12.4309C32.293 11.3847 31.7306 10.4206 30.8225 9.90094L19.3225 3.51844C18.4527 3.03386 17.394 3.03386 16.5242 3.51844L5.02419 9.90094C4.11616 10.4206 3.55377 11.3847 3.54836 12.4309V24.8126C3.55377 25.8588 4.11616 26.8229 5.02419 27.3426L16.5242 33.7251C17.394 34.2097 18.4527 34.2097 19.3225 33.7251L30.8225 27.3426Z" fill="#9747FF"/>
<path d="M26.9701 11.3384L18.8626 15.8426C18.3288 16.1507 17.6713 16.1507 17.1376 15.8426L9.03005 11.3384C8.58057 11.0754 8.02397 11.076 7.57509 11.3401C7.12622 11.6042 6.85528 12.0904 6.86685 12.6111C6.87843 13.1317 7.17072 13.6054 7.63089 13.8493L15.7384 18.3534C16.0073 18.4962 16.2898 18.6117 16.5817 18.6984V27.2468C16.5817 28.0407 17.2253 28.6843 18.0192 28.6843C18.8131 28.6843 19.4567 28.0407 19.4567 27.2468V18.6218C19.7369 18.545 20.007 18.4356 20.2617 18.2959L28.3692 13.7918C29.0442 13.3967 29.2796 12.5345 28.8989 11.8514C28.5182 11.1682 27.6611 10.9147 26.9701 11.2809V11.3384Z" fill="#9747FF"/>
</svg>
