<svg width="10" height="10" viewBox="0 0 36 35" fill="none" xmlns="http://www.w3.org/2000/svg">
<path fill-rule="evenodd" clip-rule="evenodd" d="M5.06254 0.371765H10.985C12.1321 0.371754 13.2319 0.828735 14.0412 1.64164C14.8505 2.45454 15.3026 3.55637 15.2975 4.70343V10.6068C15.2975 12.9885 13.3668 14.9193 10.985 14.9193H5.06254C2.68081 14.9193 0.750043 12.9885 0.750043 10.6068V4.70343C0.744945 3.55637 1.19704 2.45454 2.00635 1.64164C2.81565 0.828735 3.91547 0.371754 5.06254 0.371765ZM10.985 12.0251C11.7746 12.0148 12.4122 11.3772 12.4225 10.5876V4.70343C12.4225 3.90952 11.779 3.26593 10.985 3.26593H5.06254C4.26863 3.26593 3.62504 3.90952 3.62504 4.70343V10.5876C3.63536 11.3772 4.27295 12.0148 5.06254 12.0251H10.985Z" fill="#9747FF"/>
<path fill-rule="evenodd" clip-rule="evenodd" d="M25.0151 0.371765H30.9376C32.0847 0.371754 33.1845 0.828735 33.9938 1.64164C34.8031 2.45454 35.2552 3.55637 35.2501 4.70343V10.6068C35.2501 12.9885 33.3193 14.9193 30.9376 14.9193H25.0151C22.6334 14.9193 20.7026 12.9885 20.7026 10.6068V4.68427C20.7026 2.30254 22.6334 0.371765 25.0151 0.371765ZM30.9376 12.0251C31.7272 12.0148 32.3648 11.3772 32.3751 10.5876V4.70343C32.3751 3.90952 31.7315 3.26593 30.9376 3.26593H25.0151C24.2212 3.26593 23.5776 3.90952 23.5776 4.70343V10.5876C23.5879 11.3772 24.2255 12.0148 25.0151 12.0251H30.9376Z" fill="#9747FF"/>
<path fill-rule="evenodd" clip-rule="evenodd" d="M5.06254 20.3243H10.985C13.3668 20.3243 15.2975 22.255 15.2975 24.6368V30.5593C15.2975 32.941 13.3668 34.8718 10.985 34.8718H5.06254C3.91547 34.8718 2.81565 34.4148 2.00635 33.6019C1.19704 32.789 0.744945 31.6872 0.750043 30.5401V24.6368C0.750043 22.255 2.68081 20.3243 5.06254 20.3243ZM10.985 31.9776C11.779 31.9776 12.4225 31.334 12.4225 30.5401V24.6368C12.4122 23.8472 11.7746 23.2096 10.985 23.1993H5.06254C4.27295 23.2096 3.63536 23.8472 3.62504 24.6368V30.5401C3.62504 31.334 4.26863 31.9776 5.06254 31.9776H10.985Z" fill="#9747FF"/>
<path fill-rule="evenodd" clip-rule="evenodd" d="M25.015 20.3243H30.9375C33.3193 20.3243 35.25 22.255 35.25 24.6368V30.5401C35.2551 31.6872 34.803 32.789 33.9937 33.6019C33.1844 34.4148 32.0846 34.8718 30.9375 34.8718H25.015C23.868 34.8718 22.7682 34.4148 21.9588 33.6019C21.1495 32.789 20.6974 31.6872 20.7025 30.5401V24.6368C20.7025 22.255 22.6333 20.3243 25.015 20.3243ZM30.9375 31.9776C31.7314 31.9776 32.375 31.334 32.375 30.5401V24.6368C32.3647 23.8472 31.7271 23.2096 30.9375 23.1993H25.015C24.2254 23.2096 23.5879 23.8472 23.5775 24.6368V30.5401C23.5775 31.334 24.2211 31.9776 25.015 31.9776H30.9375Z" fill="#9747FF"/>
</svg>
